<svg xmlns="http://www.w3.org/2000/svg" viewBox="0 0 64 64" fill="none">
  <!-- Background Circle -->
  <circle cx="32" cy="32" r="30" fill="#3B82F6"/>
  
  <!-- Delivery Box -->
  <rect x="20" y="28" width="24" height="20" fill="#fff" rx="2"/>
  <path d="M20 34 L32 28 L44 34" fill="#93C5FD" stroke="#fff" stroke-width="1.5"/>
  <line x1="32" y1="28" x2="32" y2="48" stroke="#3B82F6" stroke-width="2"/>
  <line x1="20" y1="34" x2="44" y2="34" stroke="#3B82F6" stroke-width="2"/>
  
  <!-- Building/Hostel Icon -->
  <rect x="24" y="16" width="16" height="12" fill="#fff" rx="1"/>
  <rect x="26" y="18" width="3" height="3" fill="#3B82F6"/>
  <rect x="31" y="18" width="3" height="3" fill="#3B82F6"/>
  <rect x="36" y="18" width="3" height="3" fill="#3B82F6"/>
  <rect x="26" y="23" width="3" height="3" fill="#3B82F6"/>
  <rect x="31" y="23" width="3" height="3" fill="#3B82F6"/>
  <rect x="36" y="23" width="3" height="3" fill="#3B82F6"/>
  
  <!-- Speed Lines (delivery motion) -->
  <line x1="48" y1="36" x2="52" y2="36" stroke="#fff" stroke-width="2" stroke-linecap="round"/>
  <line x1="48" y1="40" x2="54" y2="40" stroke="#fff" stroke-width="2" stroke-linecap="round"/>
  <line x1="48" y1="44" x2="52" y2="44" stroke="#fff" stroke-width="2" stroke-linecap="round"/>
</svg>
